<?xml version="1.0" encoding="UTF-8"?>
<svg xmlns="http://www.w3.org/2000/svg" xmlns:xlink="http://www.w3.org/1999/xlink" width="50px" height="50px" viewBox="0 0 50 50" version="1.1">
<g id="surface98454">
<path style=" stroke:none;fill-rule:nonzero;fill:rgb(100%,100%,100%);fill-opacity:1;" d="M 42.707031 25 C 42.707031 34.792969 34.792969 42.707031 25 42.707031 C 15.207031 42.707031 7.292969 34.792969 7.292969 25 C 7.292969 15.207031 15.207031 7.292969 25 7.292969 C 34.792969 7.292969 42.707031 15.207031 42.707031 25 Z M 42.707031 25 "/>
<path style=" stroke:none;fill-rule:nonzero;fill:rgb(27.058824%,35.294118%,39.215686%);fill-opacity:1;" d="M 21.875 42.707031 L 21.875 36.980469 C 21.875 36.667969 22.082031 36.457031 22.394531 36.457031 C 22.707031 36.457031 22.917969 36.667969 22.917969 36.980469 L 22.917969 42.707031 L 25 42.707031 L 25 35.9375 C 25 35.625 25.207031 35.417969 25.519531 35.417969 C 25.832031 35.417969 26.042969 35.625 26.042969 35.9375 L 26.042969 42.707031 L 28.125 42.707031 L 28.125 36.980469 C 28.125 36.667969 28.332031 36.457031 28.644531 36.457031 C 28.957031 36.457031 29.167969 36.667969 29.167969 36.980469 L 29.167969 42.707031 L 31.042969 42.707031 C 31.25 42.394531 31.25 42.082031 31.25 41.5625 L 31.25 37.5 C 31.25 35.207031 29.269531 32.082031 26.769531 32.082031 L 24.167969 32.082031 C 21.769531 32.082031 19.6875 35.3125 19.6875 37.5 L 19.6875 41.5625 C 19.6875 41.980469 19.792969 42.394531 19.894531 42.707031 Z M 41.769531 27.5 C 41.769531 27.5 40.417969 27.082031 39.269531 27.082031 C 39.269531 27.082031 39.167969 27.082031 39.167969 27.082031 C 38.019531 27.082031 36.144531 27.394531 36.144531 27.394531 C 36.042969 27.394531 36.042969 27.394531 36.042969 27.292969 C 36.042969 27.1875 36.042969 27.1875 36.144531 27.1875 C 36.25 27.1875 38.230469 26.875 39.375 26.875 C 40.519531 26.875 41.875 27.292969 41.980469 27.292969 C 42.082031 27.292969 42.082031 27.394531 42.082031 27.5 C 41.875 27.394531 41.875 27.5 41.769531 27.5 Z M 41.457031 28.332031 C 41.457031 28.332031 40 27.917969 38.75 27.917969 C 37.8125 27.917969 35.625 28.125 35.519531 28.125 C 35.417969 28.125 35.417969 28.125 35.417969 28.019531 C 35.417969 27.917969 35.417969 27.917969 35.519531 27.917969 C 35.625 27.917969 37.8125 27.707031 38.75 27.707031 C 40.105469 27.707031 41.457031 28.125 41.457031 28.125 C 41.5625 28.125 41.5625 28.230469 41.5625 28.332031 C 41.5625 28.230469 41.5625 28.332031 41.457031 28.332031 Z M 8.125 27.5 C 8.019531 27.5 8.019531 27.5 8.019531 27.394531 C 8.019531 27.292969 8.019531 27.292969 8.125 27.1875 C 8.957031 26.980469 10.625 26.667969 11.5625 26.667969 C 12.394531 26.667969 15.207031 26.875 15.3125 26.875 C 15.417969 26.875 15.417969 26.980469 15.417969 26.980469 C 15.417969 27.082031 15.3125 27.082031 15.3125 27.082031 C 15.3125 27.082031 12.5 26.875 11.667969 26.875 C 10.519531 27.082031 8.957031 27.292969 8.125 27.5 Z M 8.542969 29.0625 C 8.542969 29.0625 8.4375 29.0625 8.4375 28.957031 C 8.4375 28.855469 8.4375 28.855469 8.4375 28.75 C 8.542969 28.75 9.894531 27.917969 11.457031 27.707031 C 12.8125 27.5 15.625 27.8125 15.832031 27.8125 C 15.9375 27.8125 15.9375 27.917969 15.9375 27.917969 C 15.9375 28.019531 15.832031 28.019531 15.832031 28.019531 C 15.832031 28.019531 12.917969 27.707031 11.5625 27.917969 C 10 28.230469 8.542969 29.0625 8.542969 29.0625 Z M 8.542969 29.0625 "/>
<path style=" stroke:none;fill-rule:nonzero;fill:rgb(27.058824%,35.294118%,39.215686%);fill-opacity:1;" d="M 14.792969 24.480469 C 14.792969 19.894531 19.582031 15.625 25.519531 15.625 C 31.457031 15.625 36.25 19.792969 36.25 24.480469 C 36.25 29.167969 32.8125 32.292969 25.519531 32.292969 C 18.230469 32.292969 14.792969 29.0625 14.792969 24.480469 Z M 14.792969 24.480469 "/>
<path style=" stroke:none;fill-rule:nonzero;fill:rgb(27.058824%,35.294118%,39.215686%);fill-opacity:1;" d="M 29.792969 16.980469 C 29.792969 16.980469 31.5625 14.582031 34.792969 14.582031 C 36.042969 15.832031 35.207031 19.582031 34.792969 20.625 Z M 21.25 16.980469 C 21.25 16.980469 19.480469 14.582031 16.25 14.582031 C 15 15.832031 15.832031 19.582031 16.25 20.625 Z M 20.9375 37.394531 C 20.9375 37.394531 18.542969 37.394531 18.019531 37.394531 C 16.769531 37.394531 15.625 36.875 15.105469 35.832031 C 14.480469 34.6875 13.957031 33.4375 12.394531 32.394531 C 12.082031 32.1875 12.292969 31.980469 12.8125 31.980469 C 13.332031 32.082031 14.269531 32.1875 15 33.125 C 15.730469 34.0625 16.5625 35.207031 17.917969 35.207031 C 19.269531 35.207031 20.730469 35.207031 21.5625 34.269531 Z M 20.9375 37.394531 "/>
<path style=" stroke:none;fill-rule:nonzero;fill:rgb(0%,73.72549%,83.137255%);fill-opacity:1;" d="M 25 4.167969 C 13.542969 4.167969 4.167969 13.542969 4.167969 25 C 4.167969 36.457031 13.542969 45.832031 25 45.832031 C 36.457031 45.832031 45.832031 36.457031 45.832031 25 C 45.832031 13.542969 36.457031 4.167969 25 4.167969 Z M 25 41.667969 C 15.832031 41.667969 8.332031 34.167969 8.332031 25 C 8.332031 15.832031 15.832031 8.332031 25 8.332031 C 34.167969 8.332031 41.667969 15.832031 41.667969 25 C 41.667969 34.167969 34.167969 41.667969 25 41.667969 Z M 25 41.667969 "/>
</g>
</svg>
